<?xml version="1.0" encoding="UTF-8"?>
<svg width="28px" height="28px" viewBox="0 0 28 28" version="1.1" xmlns="http://www.w3.org/2000/svg" xmlns:xlink="http://www.w3.org/1999/xlink">
    <title>43493834-5977-4C35-B752-B5A372E3FB4B</title>
    <defs>
        <linearGradient x1="50%" y1="100.003978%" x2="50%" y2="0%" id="linearGradient-1">
            <stop stop-color="#DBDBDA" offset="25%"></stop>
            <stop stop-color="#FFFFFF" offset="100%"></stop>
        </linearGradient>
        <linearGradient x1="25.163034%" y1="6.19616391%" x2="75.163034%" y2="93.1961639%" id="linearGradient-2">
            <stop stop-color="#2ABCE1" offset="0%"></stop>
            <stop stop-color="#2ABBE1" offset="11%"></stop>
            <stop stop-color="#3375F8" offset="100%"></stop>
        </linearGradient>
        <linearGradient x1="55.5422842%" y1="39.0261552%" x2="32.5422842%" y2="81.0261552%" id="linearGradient-3">
            <stop stop-color="#000000" stop-opacity="0" offset="0%"></stop>
            <stop stop-color="#000000" offset="100%"></stop>
        </linearGradient>
    </defs>
    <g id="Symbols" stroke="none" stroke-width="1" fill="none" fill-rule="evenodd">
        <g id="Web/*_Assets/Icons/ic_rating_appstore/Light-Mode" fill-rule="nonzero">
            <g id="AppStore-Icon" transform="translate(3.000000, 3.000000)">
                <circle id="Oval" fill="url(#linearGradient-1)" cx="11" cy="11" r="11"></circle>
                <circle id="Oval" fill="url(#linearGradient-2)" cx="11.0087524" cy="10.9877467" r="10.0389879"></circle>
                <circle id="Oval" fill-opacity="0.2" fill="url(#linearGradient-3)" cx="10.9921229" cy="11.0131286" r="10.0389879"></circle>
                <path d="M6.97302673,15.2291534 L6.01639083,16.870226 C5.74027791,17.3444028 5.13331335,17.5069895 4.65714513,17.2343253 L4.65714513,17.2343253 C4.18255749,16.9585265 4.01986869,16.3511811 4.29304583,15.8750796 L4.9888606,14.6882559 C4.9888606,14.6882559 6.20544239,14.0913431 6.97302673,15.2291534 Z" id="Path" fill="#F5F5F5"></path>
                <path d="M18.2548536,11.9907702 L15.6939052,11.9785169 L12.6349459,6.739338 C11.2144335,8.17735519 12.143937,9.84643539 12.143937,9.84643539 L16.2435551,16.8719764 C16.5228186,17.3380612 17.1243072,17.4939917 17.5948368,17.2222842 C18.0653664,16.9505767 18.2309809,16.351682 17.9669001,15.87683 L16.8579726,13.9766868 L18.2583546,13.9836887 C18.80736,13.9822459 19.2520581,13.5375477 19.253501,12.9885423 L19.253501,12.9885423 C19.253501,12.723765 19.1482588,12.469845 18.9609509,12.2827013 C18.773643,12.0955575 18.5196308,11.9905379 18.2548536,11.9907702 L18.2548536,11.9907702 Z" id="Path" fill="#F5F5F5"></path>
                <path d="M12.9535328,2.99331636 C12.4774313,2.72013922 11.8700858,2.88282802 11.5942871,3.35741566 L11.1269096,4.15825907 L10.6595321,3.35741566 C10.4848737,3.04335681 10.1544616,2.84785839 9.79510813,2.84593868 C9.43575467,2.84404708 9.10328776,3.03603026 8.9253083,3.34821907 C8.74732884,3.66040787 8.7514871,4.04430173 8.93618714,4.35256206 L9.9777212,6.13192234 L6.58879694,11.9400064 L3.76352642,11.9251273 C3.21368054,11.9251273 2.76794239,12.3708655 2.76794239,12.9207113 C2.76794239,13.4705572 3.21368054,13.9162954 3.76352642,13.9162954 L13.1513367,13.966184 C13.1513367,13.966184 13.9101687,12.6384468 12.1448122,11.9706397 L8.88717377,11.9540102 L13.321133,4.35431254 C13.5949091,3.8769036 13.430438,3.26796896 12.9535328,2.99331636 Z" id="Path" fill="#F5F5F5"></path>
            </g>
        </g>
    </g>
</svg>