<?xml version="1.0" encoding="UTF-8"?>
<svg width="28px" height="28px" viewBox="0 0 28 28" version="1.1" xmlns="http://www.w3.org/2000/svg" xmlns:xlink="http://www.w3.org/1999/xlink">
    <title>DBAEFE39-5D8C-43CA-8858-2166C7D61792</title>
    <defs>
        <linearGradient x1="61.3345809%" y1="4.9481245%" x2="25.8624292%" y2="71.9074222%" id="linearGradient-1">
            <stop stop-color="#00A0FF" offset="0%"></stop>
            <stop stop-color="#00A1FF" offset="1%"></stop>
            <stop stop-color="#00BEFF" offset="26%"></stop>
            <stop stop-color="#00D2FF" offset="51%"></stop>
            <stop stop-color="#00DFFF" offset="76%"></stop>
            <stop stop-color="#00E3FF" offset="100%"></stop>
        </linearGradient>
        <linearGradient x1="107.684729%" y1="50%" x2="-130.640394%" y2="50%" id="linearGradient-2">
            <stop stop-color="#FFE000" offset="0%"></stop>
            <stop stop-color="#FFBD00" offset="41%"></stop>
            <stop stop-color="#FFA500" offset="78%"></stop>
            <stop stop-color="#FF9C00" offset="100%"></stop>
        </linearGradient>
        <linearGradient x1="86.219293%" y1="31.4175953%" x2="-50.1497903%" y2="133.706805%" id="linearGradient-3">
            <stop stop-color="#FF3A44" offset="0%"></stop>
            <stop stop-color="#C31162" offset="100%"></stop>
        </linearGradient>
        <linearGradient x1="-18.7537448%" y1="-10.1915271%" x2="42.1210306%" y2="35.4901594%" id="linearGradient-4">
            <stop stop-color="#32A071" offset="0%"></stop>
            <stop stop-color="#2DA771" offset="7%"></stop>
            <stop stop-color="#15CF74" offset="48%"></stop>
            <stop stop-color="#06E775" offset="80%"></stop>
            <stop stop-color="#00F076" offset="100%"></stop>
        </linearGradient>
    </defs>
    <g id="Symbols" stroke="none" stroke-width="1" fill="none" fill-rule="evenodd">
        <g id="Web/*_Assets/Icons/ic_rating_googleplay/Light-Mode" fill-rule="nonzero">
            <g id="Play-Store-Icon" transform="translate(4.000000, 3.000000)">
                <path d="M0.401717687,0.457916883 C0.119278309,0.792307331 -0.0232791496,1.22038517 0.00310416925,1.65489119 L0.00310416925,20.5670852 C-0.0232791496,21.0015912 0.119278309,21.429669 0.401717687,21.7640595 L0.462376266,21.8239082 L11.1989447,11.2392354 L11.1989447,10.9912908 L0.462376266,0.398068168 L0.401717687,0.457916883 Z" id="Shape" fill="url(#linearGradient-1)"></path>
                <path d="M14.7573657,14.6593214 L11.2045061,11.1282472 L11.2045061,10.8803026 L14.7573657,7.34067856 L14.8353553,7.38342764 L19.0901213,9.76882643 C20.3032929,10.4442619 20.3032929,11.5557381 19.0901213,12.2397234 L14.8526863,14.6165724 L14.7573657,14.6593214 Z" id="Shape" fill="url(#linearGradient-2)"></path>
                <path d="M14.8613518,14.6080225 L11.2045061,11 L0.407279029,21.6530713 C0.917433041,22.0955435 1.67454849,22.1170917 2.20970537,21.7043702 L14.8700173,14.6080225" id="Shape" fill="url(#linearGradient-3)"></path>
                <path d="M14.8613518,7.39197746 L2.20103986,0.2956298 C1.66588298,-0.117091736 0.90876753,-0.0955434551 0.398613518,0.346928698 L11.2045061,11 L14.8613518,7.39197746 Z" id="Shape" fill="url(#linearGradient-4)"></path>
                <path d="M14.7573657,14.5310742 L2.20103986,21.5846728 C1.68720844,21.9637173 0.981769033,21.9637173 0.467937608,21.5846728 L0.407279029,21.6445215 L0.467937608,21.7043702 C0.980802241,22.0862728 1.68817523,22.0862728 2.20103986,21.7043702 L14.8613518,14.6080225 L14.7573657,14.5310742 Z" id="Shape" fill="#000000" opacity="0.2"></path>
                <path d="M0.407279029,21.5333739 C0.124839651,21.1989834 -0.0177178076,20.7709056 0.00866551127,20.3363996 L0.00866551127,20.4646468 C-0.0177178076,20.8991528 0.124839651,21.3272307 0.407279029,21.6616211 L0.467937608,21.6017724 L0.407279029,21.5333739 Z M19.0901213,12.1114761 L14.7573657,14.5310742 L14.8353553,14.6080225 L19.0901213,12.2311736 C19.5815166,12.0034177 19.9120177,11.5338503 19.9566724,11 C19.8579112,11.4829261 19.5378734,11.8934204 19.0901213,12.1114761 Z" id="Shape" fill="#000000" opacity="0.12"></path>
                <path d="M2.20103986,0.41532723 L19.0901213,9.88852386 C19.5378734,10.1065796 19.8579112,10.5170739 19.9566724,11 C19.9120177,10.4661497 19.5815166,9.99658226 19.0901213,9.76882643 L2.20103986,0.2956298 C0.987868284,-0.3798057 0,0.184482186 0,1.55245282 L0,1.68070007 C0.0259965338,0.304179616 0.996533795,-0.26010827 2.20103986,0.41532723 L2.20103986,0.41532723 Z" id="Shape" fill="#FFFFFF" opacity="0.25"></path>
            </g>
        </g>
    </g>
</svg>